<svg width="40" height="34" viewBox="0 0 40 34" fill="none" xmlns="http://www.w3.org/2000/svg">
<path d="M7.44068 4.2C7.44068 2.43272 8.8825 1 10.661 1H35.7797C37.5582 1 39 2.43272 39 4.2V20.2C39 21.9673 37.5582 23.4 35.7797 23.4H32.5593M7.44068 17H32.5593M19.678 26.6H26.1186M32.5593 29.8C32.5593 31.5673 31.1175 33 29.339 33H4.22034C2.44183 33 1 31.5673 1 29.8V13.8C1 12.0327 2.44183 10.6 4.22034 10.6H29.339C31.1175 10.6 32.5593 12.0327 32.5593 13.8V29.8Z" stroke="#121214" stroke-width="2" stroke-miterlimit="10" stroke-linecap="round" stroke-linejoin="round"/>
</svg>
